<svg width="166" height="13" viewBox="0 0 166 13" fill="none" xmlns="http://www.w3.org/2000/svg">
<path d="M0.367188 0.523438H5.53125C6.55208 0.523438 7.375 0.8125 8 1.39062C8.625 1.96354 8.9375 2.77083 8.9375 3.8125C8.9375 4.70833 8.65885 5.48958 8.10156 6.15625C7.54427 6.81771 6.6875 7.14844 5.53125 7.14844H1.92188V12H0.367188V0.523438ZM7.36719 3.82031C7.36719 2.97656 7.05469 2.40365 6.42969 2.10156C6.08594 1.9401 5.61458 1.85938 5.01562 1.85938H1.92188V5.83594H5.01562C5.71354 5.83594 6.27865 5.6875 6.71094 5.39062C7.14844 5.09375 7.36719 4.57031 7.36719 3.82031ZM16.2266 5.78125C16.9557 5.78125 17.5312 5.63542 17.9531 5.34375C18.3802 5.05208 18.5938 4.52604 18.5938 3.76562C18.5938 2.94792 18.2969 2.39062 17.7031 2.09375C17.3854 1.9375 16.9609 1.85938 16.4297 1.85938H12.6328V5.78125H16.2266ZM11.0781 0.523438H16.3906C17.2656 0.523438 17.987 0.651042 18.5547 0.90625C19.6328 1.39583 20.1719 2.29948 20.1719 3.61719C20.1719 4.30469 20.0286 4.86719 19.7422 5.30469C19.4609 5.74219 19.0651 6.09375 18.5547 6.35938C19.0026 6.54167 19.3385 6.78125 19.5625 7.07812C19.7917 7.375 19.9193 7.85677 19.9453 8.52344L20 10.0625C20.0156 10.5 20.0521 10.8255 20.1094 11.0391C20.2031 11.4036 20.3698 11.638 20.6094 11.7422V12H18.7031C18.651 11.901 18.6094 11.7734 18.5781 11.6172C18.5469 11.4609 18.5208 11.1589 18.5 10.7109L18.4062 8.79688C18.3698 8.04688 18.0911 7.54427 17.5703 7.28906C17.2734 7.14844 16.8073 7.07812 16.1719 7.07812H12.6328V12H11.0781V0.523438ZM27.4062 0.210938C29.4323 0.210938 30.9323 0.861979 31.9062 2.16406C32.6667 3.17969 33.0469 4.47917 33.0469 6.0625C33.0469 7.77604 32.612 9.20052 31.7422 10.3359C30.7214 11.6693 29.2656 12.3359 27.375 12.3359C25.6094 12.3359 24.2214 11.7526 23.2109 10.5859C22.3099 9.46094 21.8594 8.03906 21.8594 6.32031C21.8594 4.76823 22.2448 3.4401 23.0156 2.33594C24.0052 0.919271 25.4688 0.210938 27.4062 0.210938ZM27.5625 10.9453C28.9323 10.9453 29.9219 10.4557 30.5312 9.47656C31.1458 8.49219 31.4531 7.36198 31.4531 6.08594C31.4531 4.73698 31.099 3.65104 30.3906 2.82812C29.6875 2.00521 28.724 1.59375 27.5 1.59375C26.3125 1.59375 25.3438 2.0026 24.5938 2.82031C23.8438 3.63281 23.4688 4.83333 23.4688 6.42188C23.4688 7.69271 23.7891 8.76562 24.4297 9.64062C25.0755 10.5104 26.1198 10.9453 27.5625 10.9453ZM39.3125 10.6719C39.8385 10.6719 40.2708 10.6172 40.6094 10.5078C41.2135 10.3047 41.7083 9.91406 42.0938 9.33594C42.401 8.8724 42.6224 8.27865 42.7578 7.55469C42.8359 7.1224 42.875 6.72135 42.875 6.35156C42.875 4.92969 42.5911 3.82552 42.0234 3.03906C41.4609 2.2526 40.5521 1.85938 39.2969 1.85938H36.5391V10.6719H39.3125ZM34.9766 0.523438H39.625C41.2031 0.523438 42.4271 1.08333 43.2969 2.20312C44.0729 3.21354 44.4609 4.50781 44.4609 6.08594C44.4609 7.30469 44.2318 8.40625 43.7734 9.39062C42.9661 11.1302 41.5781 12 39.6094 12H34.9766V0.523438ZM48.1562 0.523438V7.61719C48.1562 8.45052 48.3125 9.14323 48.625 9.69531C49.0885 10.5286 49.8698 10.9453 50.9688 10.9453C52.2865 10.9453 53.1823 10.4948 53.6562 9.59375C53.9115 9.10417 54.0391 8.44531 54.0391 7.61719V0.523438H55.6172V6.96875C55.6172 8.38021 55.4271 9.46615 55.0469 10.2266C54.349 11.612 53.0312 12.3047 51.0938 12.3047C49.1562 12.3047 47.8411 11.612 47.1484 10.2266C46.7682 9.46615 46.5781 8.38021 46.5781 6.96875V0.523438H48.1562ZM62.8672 0.210938C64.3203 0.210938 65.4479 0.59375 66.25 1.35938C67.0521 2.125 67.4974 2.99479 67.5859 3.96875H66.0703C65.8984 3.22917 65.5547 2.64323 65.0391 2.21094C64.5286 1.77865 63.8099 1.5625 62.8828 1.5625C61.7526 1.5625 60.8385 1.96094 60.1406 2.75781C59.4479 3.54948 59.1016 4.76562 59.1016 6.40625C59.1016 7.75 59.4141 8.84115 60.0391 9.67969C60.6693 10.513 61.6068 10.9297 62.8516 10.9297C63.9974 10.9297 64.8698 10.4896 65.4688 9.60938C65.7865 9.14583 66.0234 8.53646 66.1797 7.78125H67.6953C67.5599 8.98958 67.112 10.0026 66.3516 10.8203C65.4401 11.8047 64.2109 12.2969 62.6641 12.2969C61.3307 12.2969 60.2109 11.8932 59.3047 11.0859C58.112 10.0182 57.5156 8.36979 57.5156 6.14062C57.5156 4.44792 57.9635 3.0599 58.8594 1.97656C59.8281 0.799479 61.1641 0.210938 62.8672 0.210938ZM77.9453 0.523438V1.89062H74.0781V12H72.5V1.89062H68.6328V0.523438H77.9453ZM83.6953 0.523438H91.6562V1.92969H85.25V5.41406H90.8828V6.78125H85.25V12H83.6953V0.523438ZM93.4766 0.523438H101.844V1.92969H94.9922V5.41406H101.328V6.74219H94.9922V10.6328H101.961V12H93.4766V0.523438ZM109.891 7.29688L108.148 2.22656L106.297 7.29688H109.891ZM107.336 0.523438H109.094L113.258 12H111.555L110.391 8.5625H105.852L104.609 12H103.016L107.336 0.523438ZM121.836 0.523438V1.89062H117.969V12H116.391V1.89062H112.523V0.523438H121.836ZM124.953 0.523438V7.61719C124.953 8.45052 125.109 9.14323 125.422 9.69531C125.885 10.5286 126.667 10.9453 127.766 10.9453C129.083 10.9453 129.979 10.4948 130.453 9.59375C130.708 9.10417 130.836 8.44531 130.836 7.61719V0.523438H132.414V6.96875C132.414 8.38021 132.224 9.46615 131.844 10.2266C131.146 11.612 129.828 12.3047 127.891 12.3047C125.953 12.3047 124.638 11.612 123.945 10.2266C123.565 9.46615 123.375 8.38021 123.375 6.96875V0.523438H124.953ZM140.164 5.78125C140.893 5.78125 141.469 5.63542 141.891 5.34375C142.318 5.05208 142.531 4.52604 142.531 3.76562C142.531 2.94792 142.234 2.39062 141.641 2.09375C141.323 1.9375 140.898 1.85938 140.367 1.85938H136.57V5.78125H140.164ZM135.016 0.523438H140.328C141.203 0.523438 141.924 0.651042 142.492 0.90625C143.57 1.39583 144.109 2.29948 144.109 3.61719C144.109 4.30469 143.966 4.86719 143.68 5.30469C143.398 5.74219 143.003 6.09375 142.492 6.35938C142.94 6.54167 143.276 6.78125 143.5 7.07812C143.729 7.375 143.857 7.85677 143.883 8.52344L143.938 10.0625C143.953 10.5 143.99 10.8255 144.047 11.0391C144.141 11.4036 144.307 11.638 144.547 11.7422V12H142.641C142.589 11.901 142.547 11.7734 142.516 11.6172C142.484 11.4609 142.458 11.1589 142.438 10.7109L142.344 8.79688C142.307 8.04688 142.029 7.54427 141.508 7.28906C141.211 7.14844 140.745 7.07812 140.109 7.07812H136.57V12H135.016V0.523438ZM146.539 0.523438H154.906V1.92969H148.055V5.41406H154.391V6.74219H148.055V10.6328H155.023V12H146.539V0.523438ZM158.078 8.29688C158.115 8.94792 158.268 9.47656 158.539 9.88281C159.055 10.6432 159.964 11.0234 161.266 11.0234C161.849 11.0234 162.38 10.9401 162.859 10.7734C163.786 10.4505 164.25 9.8724 164.25 9.03906C164.25 8.41406 164.055 7.96875 163.664 7.70312C163.268 7.44271 162.648 7.21615 161.805 7.02344L160.25 6.67188C159.234 6.44271 158.516 6.1901 158.094 5.91406C157.365 5.4349 157 4.71875 157 3.76562C157 2.73438 157.357 1.88802 158.07 1.22656C158.784 0.565104 159.794 0.234375 161.102 0.234375C162.305 0.234375 163.326 0.526042 164.164 1.10938C165.008 1.6875 165.43 2.61458 165.43 3.89062H163.969C163.891 3.27604 163.724 2.80469 163.469 2.47656C162.995 1.8776 162.19 1.57812 161.055 1.57812C160.138 1.57812 159.479 1.77083 159.078 2.15625C158.677 2.54167 158.477 2.98958 158.477 3.5C158.477 4.0625 158.711 4.47396 159.18 4.73438C159.487 4.90104 160.182 5.10938 161.266 5.35938L162.875 5.72656C163.651 5.90365 164.25 6.14583 164.672 6.45312C165.401 6.98958 165.766 7.76823 165.766 8.78906C165.766 10.0599 165.302 10.9688 164.375 11.5156C163.453 12.0625 162.38 12.3359 161.156 12.3359C159.729 12.3359 158.612 11.9714 157.805 11.2422C156.997 10.5182 156.602 9.53646 156.617 8.29688H158.078Z" fill="#5C5C5E"/>
</svg>
